<svg aria-hidden="true" focusable="false" data-prefix="fad" data-icon="mobile-alt" role="img" xmlns="http://www.w3.org/2000/svg" viewBox="0 0 320 512" class="svg-inline--fa fa-mobile-alt fa-w-10 fa-7x"><g class="fa-group"><path fill="#ffbf02" d="M272 0H48A48 48 0 0 0 0 48v416a48 48 0 0 0 48 48h224a48 48 0 0 0 48-48V48a48 48 0 0 0-48-48zM160 480a32 32 0 1 1 32-32 32 32 0 0 1-32 32zm112-108a12 12 0 0 1-12 12H60a12 12 0 0 1-12-12V60a12 12 0 0 1 12-12h200a12 12 0 0 1 12 12z" class="fa-secondary"></path><path fill="#fe6246" d="M272 372a12 12 0 0 1-12 12H60a12 12 0 0 1-12-12V60a12 12 0 0 1 12-12h200a12 12 0 0 1 12 12z" class="fa-primary"></path></g></svg>