<svg xmlns="http://www.w3.org/2000/svg" width="168.38" height="658.97" viewBox="0 0 168.38 658.97">
  <defs>
    <style>
      .cls-1 {
        fill: #ffbf02;
        fill-rule: evenodd;
      }
    </style>
  </defs>
  <path class="cls-1" d="M1859.93,4821.17c-30.79-35.03-87.59-48.36-104.33-90.9-15.08-38.32,16.16-74.94,41.12-143.1,21.45-58.59,23.15-98.45,57.07-122.22,36.61-25.64,81.36-10.47,115.38-44.21,25.1-24.9,27.49-66.79,34.37-65.72,6.07,0.94,9.45,36.31,12.89,52.82,4.67,22.4,15.27,35.87,24.38,51.36,50.09,85.24,37.7,241.7,1.18,435.66-7.17,38.06-20.35,97.18-63.05,114.44-14.23,5.75-38.09,8.2-53.95-4.49-20.51-16.41-13.48-47.8-19.03-84.76A197.6,197.6,0,0,0,1859.93,4821.17Z" transform="translate(-1751.62 -4355.03)"/>
</svg>
